<svg xmlns="http://www.w3.org/2000/svg" viewBox="0 0 235.73 66.43"><defs><style>.cls-1{fill:#fff;}.cls-2{fill:#e30613;}</style></defs><g id="Calque_2" data-name="Calque 2"><g id="Calque_1-2" data-name="Calque 1"><path class="cls-1" d="M60.36,50.53c1-.41,1.59.42,1.32,1.37a5.4,5.4,0,0,1-.86,1.56c-2.31,3.4-8.74,13-17.76,13-6.33,0-8.87-4.84-8.62-13.21.22-7.08,1.45-11.19.75-14C30.92,44.12,26.49,49.39,21.81,55c-4.35,5.2-6,7.87-7.12,7.87-2.14,0-3-2.53-3-5,.5-16.32,26.39-40.44,26.69-50.26,0-1.3-1.65-1.95-2.76-1.95-11.79,0-28.81,16-29.18,28.24C6.26,41.09,9.92,43,9.9,43.61c0,.37-.42.73-1.21.73-3.16,0-8.94-3.91-8.68-12.5C.45,17.25,21.1,3.32,35.65,3.32c3.64,0,7.12,2.67,7,6.14-.27,8.88-13.52,23.12-24.24,45.15C40.32,26.52,61.62,0,75.62,0,79.18,0,82.07,1.34,82,3.08c0,.58-.41.65-1.68.86C66.41,6.47,52.72,19.57,37,37.19c2.8,1.59,5.37,5.49,5.1,14.29-.17,5.64.67,9,4.23,9,6.57,0,10.34-5.46,13.15-9.21A2.24,2.24,0,0,1,60.36,50.53Z"/><path class="cls-2" d="M106.15,2.8c-.07,2.87-4.24,6.24-5,6.24-.21,0-.45-.24-.44-.35,0-.29,3.29-3.61,3.36-6.65a.9.9,0,0,0-.91-1c-1.46,0-3.56,1.52-6,8.42-2.56,7.36-5.11,9-7.29,10.56A22.37,22.37,0,0,1,97,18.3c3.15,0,4.81,2.32,4.79,3.2a.31.31,0,0,1-.31.31A7.15,7.15,0,0,0,97,20.62C89.72,20.62,85.73,23,85,23a.84.84,0,0,1-.68-.66c0-.24,3.43-1.81,4.85-3,2.08-1.83,3.33-3.68,5.48-10.77S100.24,0,102.85,0C104.51,0,106.19,1.23,106.15,2.8Z"/><path class="cls-2" d="M103.33,18.3c-1.84,0-3.56-1-3.51-3.08.08-3.32,3.76-5.87,5.86-5.87a2,2,0,0,1,1.71,1.71c-.07,1.71-2.28,3.63-3.85,3.63a2.94,2.94,0,0,1-1-.29,4.16,4.16,0,0,0-.42,1.82c0,.79.3,1.05.68,1.05,2,0,4.72-2.74,6.22-4.55.12-.14.18-.21.27-.21a.55.55,0,0,1,.5.47,1.09,1.09,0,0,1-.25.53C108.45,14.93,105.29,18.3,103.33,18.3ZM103,13.56c.77,0,3.22-2.06,3.3-2.77,0-.1,0-.18-.14-.18C105.83,10.61,104.54,11.24,103,13.56Z"/><path class="cls-1" d="M95.3,45.38c-2.62,0-5.53-3.12-5.45-5.68s5.23-9.44,5.24-10c0-.31-.17-.5-.29-.5-.94,0-4.73,3.25-7.61,7.62s-4.23,7.68-5,7.68-2.78-1.06-2.72-2.81c.11-3.68,5.65-11.43,5.7-12.92,0-.44-.17-.69-.42-.69-1.18,0-4.3,3.81-7.76,8.87s-5.27,9-6.21,9-3.2-1.62-3.15-3.18c.11-3.81,6.75-14.49,6.84-17.49a.65.65,0,0,0-.66-.75c-2.19,0-6.19,2.31-8.08,2.81a7.37,7.37,0,0,1,.53,2.94C66.11,36,59.92,46.44,53.92,46.44A6.16,6.16,0,0,1,48.06,40c.21-7,6.39-13.8,9.58-13.18,3.47.67,2.64,3.44,2,3-1.5-1.1-6.7,5.77-6.9,12.46,0,1.18.51,1.75,1,1.75,3.24,0,8.43-12.43,8.54-15.87,0-1.5-.45-1.75-.43-2.18a.88.88,0,0,1,1-.75c3.56,0,7.1-3.25,10.47-3.25,2.31,0,5.21,3.37,5.14,5.43a14.34,14.34,0,0,1-.74,3.94s4.48-5.69,7.36-5.69c1.68,0,3.46,3.13,3.4,5,.78-.75,3.55-3.69,6.24-3.93,1.88-.19,3.78,3.18,3.71,5.43s-3.85,7.62-3.93,9.93c0,.69.29.87.79.87,1.62,0,6.7-6.68,9-9.68.26-.31.39-.5.58-.5a1.2,1.2,0,0,1,1,1.13,2.62,2.62,0,0,1-.53,1.25C103.59,37.82,98.36,45.38,95.3,45.38Z"/><path class="cls-1" d="M107.81,40.58c3.62,0,9-8.87,9.18-14.12,0-1-.27-1.37-.77-1.37-1.75,0-9,7.74-11.1,15.74-3.27,12.92-6,25.6-16.27,25.6-.94,0-1.3-.37-1.29-.68s.51-.57,1.15-1.07c4.29-3.31,9.06-14.36,11.85-24,4.68-16.24,8.66-21.8,10.29-21.8.5,0,1,.63,1,1.25s-3.87,6.12-4.87,12.18c1.66-3.06,6.6-9.62,9.85-9.62,2.5,0,4.29,2.81,4.17,6.56-.21,6.81-5,13.68-10,13.68-2.56,0-3.77-1.25-3.75-1.88C107.24,40.76,107.44,40.58,107.81,40.58Z"/><path class="cls-1" d="M151.33,31.26c-.16,5.25-6.91,15.43-12.15,15.43a6.31,6.31,0,0,1-6-6.74c.14-4.56,5.81-10.43,5.81-10.43-1.25,0-4,.93-6.92,1.62-2.87,6.18-6.85,13.74-7,17.86-.06,1.94.63,2.06.61,2.56s-.39.69-1.14.69c-1.81,0-4-2.56-3.93-6.31.14-4.62,3-9.43,5.87-14.18-1.49-.31-2.94-2-2.92-2.62S125,28.58,128.7,28a25.18,25.18,0,0,0,3.3-8c.16-1.06.56-1.81,1.06-1.81.93,0,2.06,1.93,2,4.93a13.61,13.61,0,0,1-1.18,4,74.18,74.18,0,0,1,9.28-1.44,3.26,3.26,0,0,1,2.67,2.75c0,1.06-7.77,9.05-7.92,13.68,0,1.12.45,1.68,1.26,1.68,1.88,0,8.5-10.3,8.67-15.74.07-2.49-1.34-3.18-1.33-3.68s.59-.75.9-.75C148.88,23.52,151.46,26.83,151.33,31.26Z"/><path class="cls-2" d="M11.07,35,25.14,23.32a.24.24,0,0,0,0-.41l-1.86-1a.23.23,0,0,1-.07-.37l8.67-11.48a.26.26,0,0,0-.37-.35L17.42,21.36a.24.24,0,0,0,0,.41l1.86,1a.24.24,0,0,1,.07.37L10.71,34.63A.25.25,0,0,0,11.07,35Z"/><path class="cls-1" d="M166.94,21.06c1.47-.36,1.82-2.16,1.55-3.31a1.51,1.51,0,0,0-1.91-1.24,3,3,0,0,0-2,3.35A2.12,2.12,0,0,0,166.94,21.06Z"/><path class="cls-1" d="M181.77,40.22c-2.31,2.5-4.36,4.47-5.26,4.47-.38,0-.73-.31-.68-.93.3-3.94,3.72-7.94,3.95-11C180,29.89,175.35,27,175.5,25c1-1.5,2.76-4.31,2.89-6.12a2.08,2.08,0,0,0-1.82-2.38c-1.49,0-4.7,3.56-4.93,6.69a7.35,7.35,0,0,0,1.28,3.62s-2.12,3.37-4.83,7c-.1.13-.19.25-.27.37-2.78,3.35-8.42,9.38-9.9,9.38-.5,0-1-.31-1-1.38.48-4.62,6.33-10.18,6.87-15.61.08-1.19-.83-2.31-1.33-2.31s-.67.56-1.16,1.31c-4.29,6.31-8.64,9.43-9,13.93-.32,4.18,2.69,6.49,5.5,6.49,3.4,0,9.36-7.42,11.51-10.59,3.29-4.48,5.07-7.14,5.07-7.14,1.35,1.12,1.53,1.18,1.47,2-.22,2.94-5.61,6.5-6,11.68a5.4,5.4,0,0,0,5.7,5.5c1.57,0,3.52-1.33,5.46-3.14a14.38,14.38,0,0,1,2.08-1.69Z"/><path class="cls-2" d="M225.07,27.07a15.06,15.06,0,0,0-4,.52l.35-5.26h13V16.45H215.67l-.87,15L218.67,34a13.11,13.11,0,0,1,5.1-1.14c3.17,0,5.39,1.53,5.39,4.14v.09c0,2.69-2,4.22-5.09,4.22a11.8,11.8,0,0,1-3-.44,8.4,8.4,0,0,1-1.77-.71,37.36,37.36,0,0,0-10.15-4.27V16.45h-5.71L189.52,31.67c-1.68,1.72-4,4.42-6.26,6.92l1.7,2.95c7.91-4,17.76-1,17.76-1v6.87h6.46V41.92c2.88.74,5.36,2.88,8.34,4.2h0a18.47,18.47,0,0,0,6.63,1.32c7,0,11.57-4.09,11.57-10.53v-.09C235.73,29.94,231,27.07,225.07,27.07Zm-22.35,7.68a60.29,60.29,0,0,0-8.17-.59l8.17-8.43Z"/><path class="cls-2" d="M165.75,66.33h-.44a.53.53,0,0,1-.57-.41l-1-3.11H163v3a.45.45,0,0,1-.51.5h-.45a.45.45,0,0,1-.51-.5V58a.46.46,0,0,1,.51-.51h1.78c1.33,0,2.22.53,2.22,1.87V61a1.64,1.64,0,0,1-1,1.64l1.07,3.16A.4.4,0,0,1,165.75,66.33ZM163,61.55h.77c.47,0,.8-.18.8-.81V59.6c0-.63-.33-.81-.8-.81H163Z"/><path class="cls-2" d="M173.18,66.33h-2.91a.45.45,0,0,1-.5-.5V58a.46.46,0,0,1,.5-.51h2.87a.45.45,0,0,1,.5.51v.27a.45.45,0,0,1-.5.51h-1.91v2.42h1.52a.46.46,0,0,1,.5.51V62a.46.46,0,0,1-.5.51h-1.52v2.55h2a.45.45,0,0,1,.5.5v.28A.45.45,0,0,1,173.18,66.33Z"/><path class="cls-2" d="M180.75,60.66h-.43a.45.45,0,0,1-.5-.51v-.73a.67.67,0,0,0-.75-.76.67.67,0,0,0-.74.76V60a.89.89,0,0,0,.56.9l1,.58c.84.48,1.35.87,1.35,1.82v1.27c0,1.37-.85,1.84-2.18,1.84h0c-1.34,0-2.18-.46-2.18-1.84v-1a.46.46,0,0,1,.5-.51h.43a.46.46,0,0,1,.51.51v.83a.76.76,0,1,0,1.51,0V63.7a.9.9,0,0,0-.58-.92l-1-.58c-.86-.5-1.35-.9-1.35-1.82V59.22c0-1.31,1-1.82,2.17-1.82h0c1.21,0,2.17.51,2.17,1.82v.93A.45.45,0,0,1,180.75,60.66Z"/><path class="cls-2" d="M188.68,58v.27a.46.46,0,0,1-.51.51h-1v7a.45.45,0,0,1-.5.5h-.46a.44.44,0,0,1-.5-.5v-7h-1a.46.46,0,0,1-.51-.51V58a.46.46,0,0,1,.51-.51h3.4A.46.46,0,0,1,188.68,58Z"/><path class="cls-2" d="M195.42,66.33H195a.5.5,0,0,1-.54-.46l-.24-1.5h-1.62l-.24,1.5a.5.5,0,0,1-.54.46h-.39c-.34,0-.52-.19-.45-.54L192.38,58a.51.51,0,0,1,.55-.46h.91a.52.52,0,0,1,.56.46l1.47,7.83A.41.41,0,0,1,195.42,66.33ZM194,63.15l-.62-3.92-.62,3.92Z"/><path class="cls-2" d="M203.57,58v6.56c0,1.36-.86,1.86-2.19,1.86h0c-1.34,0-2.2-.49-2.2-1.86V58a.46.46,0,0,1,.51-.51h.45a.45.45,0,0,1,.5.51v6.33c0,.63.28.81.76.81s.76-.18.76-.81V58a.45.45,0,0,1,.5-.51h.46A.46.46,0,0,1,203.57,58Z"/><path class="cls-2" d="M211.54,66.33h-.45a.52.52,0,0,1-.56-.41l-1-3.11h-.74v3a.45.45,0,0,1-.51.5h-.45a.44.44,0,0,1-.5-.5V58a.45.45,0,0,1,.5-.51h1.78c1.34,0,2.22.53,2.22,1.87V61a1.62,1.62,0,0,1-1,1.64L212,65.75A.4.4,0,0,1,211.54,66.33Zm-2.74-4.78h.77c.48,0,.81-.18.81-.81V59.6c0-.63-.33-.81-.81-.81h-.77Z"/><path class="cls-2" d="M219.62,66.33h-.47a.5.5,0,0,1-.54-.46l-.24-1.5h-1.62l-.24,1.5a.5.5,0,0,1-.54.46h-.39a.42.42,0,0,1-.46-.54L216.57,58a.52.52,0,0,1,.56-.46H218a.51.51,0,0,1,.55.46l1.48,7.83A.41.41,0,0,1,219.62,66.33Zm-1.44-3.18-.62-3.92-.62,3.92Z"/><path class="cls-2" d="M224.26,66.33h-.33a.45.45,0,0,1-.5-.5V58a.46.46,0,0,1,.5-.51h.53a.55.55,0,0,1,.57.42l1.72,5V58a.45.45,0,0,1,.5-.51h.33a.45.45,0,0,1,.5.51v7.82a.44.44,0,0,1-.5.5h-.45a.55.55,0,0,1-.57-.41l-1.79-5.33v5.24A.45.45,0,0,1,224.26,66.33Z"/><path class="cls-2" d="M235.73,58v.27a.45.45,0,0,1-.5.51h-1v7a.45.45,0,0,1-.51.5h-.45a.45.45,0,0,1-.51-.5v-7h-1a.46.46,0,0,1-.5-.51V58a.46.46,0,0,1,.5-.51h3.41A.45.45,0,0,1,235.73,58Z"/></g></g></svg>